<svg width="511" height="512" viewBox="0 0 511 512" fill="none" xmlns="http://www.w3.org/2000/svg">
<rect width="511" height="512" rx="100" fill="white"/>
<path d="M337.595 184.153L266.609 77.6263C262.716 71.7837 254.227 71.6226 250.229 77.3938C229.531 107.269 175.073 187.22 144.122 245.265C119.684 291.097 92.6259 355.67 75.9636 397.139C72.001 407.002 84.2791 415.347 92.1809 408.239C125.022 378.695 176.969 333.775 218.823 305.86C267.037 273.702 339.57 281.389 375.975 288.092C384.588 289.678 391.867 280.346 387.814 272.582L368.891 236.33C367.607 233.87 365.372 232.063 362.641 231.567C350.108 229.291 310.593 224.881 255.164 245.265C217.844 258.989 174.258 296.62 142.637 327.652C134.5 335.637 127.359 330.201 134.895 321.647C152.549 301.607 177.901 277.815 213.439 254.018C265.596 219.091 303.814 208.18 326.627 205.156C335.561 203.971 342.593 191.653 337.595 184.153Z" fill="#161616"/>
<path d="M211.48 341.862L195.672 355.74C193.301 357.822 192.054 360.881 192.822 363.942C196.483 378.529 214.242 421.707 297.561 437.822C374.035 452.614 422.7 444.994 441.802 440.43C447.016 439.185 449.691 433.798 448.033 428.7L416.154 330.703C414.853 326.702 411.186 323.944 406.982 323.802L354.091 322.019L304.533 320.347C298.882 320.157 294.196 324.687 294.196 330.342V347.029C294.196 352.552 298.673 357.029 304.196 357.029H353.13C359.284 357.029 363.732 362.53 361.149 368.115C354.819 381.806 338.38 403.323 297.561 403.485C256.432 403.648 237.516 368.983 229.701 347.244C227.059 339.895 217.349 336.709 211.48 341.862Z" fill="#161616"/>
</svg>
